<svg width="252" height="252" viewBox="0 0 252 252" fill="none" xmlns="http://www.w3.org/2000/svg">
<g opacity="0.66" filter="url(#filter0_f_1446_2341)">
<g clip-path="url(#clip0_1446_2341)">
<rect width="232" height="232" rx="116" transform="matrix(-4.37114e-08 1 1 4.37114e-08 10 10)" fill="white"/>
<g filter="url(#filter1_f_1446_2341)">
<ellipse cx="116" cy="116" rx="116" ry="116" transform="matrix(-4.37114e-08 1 1 4.37114e-08 10 10)" fill="url(#paint0_radial_1446_2341)"/>
</g>
<g filter="url(#filter2_f_1446_2341)">
<ellipse cx="116" cy="116" rx="116" ry="116" transform="matrix(-4.37114e-08 1 1 4.37114e-08 10 10)" fill="url(#paint1_radial_1446_2341)"/>
</g>
</g>
</g>
<defs>
<filter id="filter0_f_1446_2341" x="0.2" y="0.2" width="251.6" height="251.6" filterUnits="userSpaceOnUse" color-interpolation-filters="sRGB">
<feFlood flood-opacity="0" result="BackgroundImageFix"/>
<feBlend mode="normal" in="SourceGraphic" in2="BackgroundImageFix" result="shape"/>
<feGaussianBlur stdDeviation="4.9" result="effect1_foregroundBlur_1446_2341"/>
</filter>
<filter id="filter1_f_1446_2341" x="-46.1" y="-46.1" width="344.2" height="344.2" filterUnits="userSpaceOnUse" color-interpolation-filters="sRGB">
<feFlood flood-opacity="0" result="BackgroundImageFix"/>
<feBlend mode="normal" in="SourceGraphic" in2="BackgroundImageFix" result="shape"/>
<feGaussianBlur stdDeviation="28.05" result="effect1_foregroundBlur_1446_2341"/>
</filter>
<filter id="filter2_f_1446_2341" x="-46.1" y="-46.1" width="344.2" height="344.2" filterUnits="userSpaceOnUse" color-interpolation-filters="sRGB">
<feFlood flood-opacity="0" result="BackgroundImageFix"/>
<feBlend mode="normal" in="SourceGraphic" in2="BackgroundImageFix" result="shape"/>
<feGaussianBlur stdDeviation="28.05" result="effect1_foregroundBlur_1446_2341"/>
</filter>
<radialGradient id="paint0_radial_1446_2341" cx="0" cy="0" r="1" gradientUnits="userSpaceOnUse" gradientTransform="translate(96.3036 74.9149) rotate(72.1279) scale(165.05 165.05)">
<stop offset="0.215804" stop-color="#FCE9A8"/>
<stop offset="1" stop-color="#EE9427"/>
</radialGradient>
<radialGradient id="paint1_radial_1446_2341" cx="0" cy="0" r="1" gradientUnits="userSpaceOnUse" gradientTransform="translate(96.3036 74.9149) rotate(72.1279) scale(165.05 165.05)">
<stop offset="0.215804" stop-color="#FCE9A8"/>
<stop offset="1" stop-color="#EE9427"/>
</radialGradient>
<clipPath id="clip0_1446_2341">
<rect width="232" height="232" rx="116" transform="matrix(-4.37114e-08 1 1 4.37114e-08 10 10)" fill="white"/>
</clipPath>
</defs>
</svg>
